# xmcd
#
# Track frame offsets: 
#        150
#        17897
#        34493
#        52003
#        66388
#        84936
#        98785
#        118297
#        132483
#        150218
#        174744
#        194604
#        214147
#        235861
#        257800
#        275642
#        286034
#        301935
#        318328
#        335416
#
# Disc length: 4639 seconds
#
# Revision: 0
# Processed by: cddbd v1.5.2PL0 Copyright (c) Steve Scherf et al.
# Submitted via: ExactAudioCopyFreeDBPlugin 1.0
#
DISCID=2b121d14
DTITLE=Brian Letton - Best Of Brian Letton
DYEAR=2005
DGENRE=Country
TTITLE0=A Stones Throw From You
TTITLE1=The Brumbies
TTITLE2=The Digger and His Dog
TTITLE3=Footprints
TTITLE4=I Will Love You All My Life
TTITLE5=The Salvos
TTITLE6=The Toy Tin Drum
TTITLE7=A Song for Mum
TTITLE8=She's Gotta Be Emu Export
TTITLE9=Blue Christmas
TTITLE10=Give Me Australia
TTITLE11=Roling Wagons
TTITLE12=When We First Fell in Love
TTITLE13=Granny Adeline
TTITLE14=Am I That Easy to Forget
TTITLE15=Nobody's Queen
TTITLE16=When the Harvest Days are Over Jessie Dear
TTITLE17=The Old Mitchell Run
TTITLE18=Grandfather Johnson
TTITLE19=One, Two, Three Waltz
EXTD=
EXTT0=
EXTT1=
EXTT2=
EXTT3=
EXTT4=
EXTT5=
EXTT6=
EXTT7=
EXTT8=
EXTT9=
EXTT10=
EXTT11=
EXTT12=
EXTT13=
EXTT14=
EXTT15=
EXTT16=
EXTT17=
EXTT18=
EXTT19=
PLAYORDER=
